<svg width="154" height="20" viewBox="0 0 154 20" fill="none" xmlns="http://www.w3.org/2000/svg">
<g clip-path="url(#clip0)">
<path d="M108.024 19.9155H144.003C145.31 19.9155 146.604 19.6582 147.811 19.1582C149.018 18.6582 150.115 17.9253 151.039 17.0015C151.962 16.0776 152.695 14.9808 153.195 13.7737C153.695 12.5666 153.953 11.2728 153.953 9.96622V9.96622C153.955 8.65823 153.699 7.36265 153.2 6.15359C152.701 4.94453 151.969 3.84573 151.045 2.92006C150.12 1.99439 149.023 1.26002 147.815 0.75896C146.607 0.257904 145.311 -1.88513e-06 144.003 0L108.024 0C106.716 -1.88513e-06 105.421 0.257904 104.212 0.75896C103.004 1.26002 101.907 1.99439 100.982 2.92006C100.058 3.84573 99.3258 4.94453 98.8268 6.15359C98.3278 7.36265 98.0721 8.65823 98.0743 9.96622V9.96622C98.0743 12.6049 99.1225 15.1356 100.988 17.0015C102.854 18.8673 105.385 19.9155 108.024 19.9155ZM5.68694 19.9437H10.0788V3.8964H15.7658V0H0V3.88514H5.68694V19.9437ZM21.509 19.9437H25.9009V4.64527H25.9572L30.9966 19.9324H34.375L39.5833 4.64527H39.6396V19.9324H44.0315V0H37.4155L32.7984 13.0068H32.7421L28.1532 0H21.509V19.9437ZM50.1914 0.0675676H56.7793C58.313 0.0699248 59.8408 0.259004 61.3288 0.630631C62.684 0.95211 63.9609 1.54179 65.0845 2.36486C66.1711 3.18191 67.0458 4.24779 67.6351 5.47297C68.3013 6.92857 68.6231 8.51814 68.5754 10.1182C68.606 11.5924 68.2937 13.0534 67.6633 14.3863C67.0763 15.5857 66.2346 16.6425 65.1971 17.4831C64.1351 18.3346 62.9221 18.9784 61.6216 19.3806C60.2471 19.8171 58.8126 20.0356 57.3705 20.0282H50.1914V0.0675676ZM54.5833 15.9459H56.8356C57.7829 15.9524 58.7277 15.8485 59.6509 15.6363C60.4747 15.4691 61.2538 15.1294 61.9369 14.6396C62.589 14.1462 63.1077 13.4979 63.4459 12.7534C63.8413 11.8528 64.0335 10.8762 64.009 9.89302C64.0257 9.01203 63.8327 8.13969 63.4459 7.34797C63.0948 6.64637 62.5883 6.03402 61.9651 5.55743C61.3174 5.07639 60.5862 4.7194 59.8086 4.5045C58.9509 4.26468 58.064 4.14529 57.1734 4.14977H54.5833V15.9459ZM74.9381 0.0675676H82.3705C83.2428 0.0679928 84.1139 0.130085 84.9775 0.253378C85.7966 0.359494 86.5911 0.607174 87.3254 0.98536C88.0114 1.34129 88.5934 1.86896 89.0146 2.51689C89.4819 3.30755 89.707 4.21785 89.6622 5.13514C89.7007 6.15659 89.3665 7.15721 88.7218 7.95045C88.0638 8.71259 87.1965 9.26471 86.2275 9.53829V9.57207C86.851 9.6611 87.4558 9.85128 88.018 10.1351C88.5372 10.3959 89.0046 10.7488 89.3975 11.1768C89.7866 11.6054 90.0871 12.1068 90.2815 12.652C90.4912 13.2294 90.5961 13.8396 90.5912 14.4538C90.625 15.379 90.3903 16.2942 89.9155 17.089C89.4738 17.7808 88.876 18.3593 88.17 18.7782C87.4279 19.2237 86.6146 19.5379 85.7658 19.7072C84.8904 19.8949 83.9977 19.9893 83.1025 19.9887H74.9381V0.0675676ZM79.3299 8.03491H82.5113C82.8486 8.03675 83.185 7.99895 83.5135 7.9223C83.8277 7.85408 84.1271 7.73012 84.3975 7.55631C84.6614 7.38615 84.8798 7.15423 85.0338 6.88063C85.1987 6.56886 85.2802 6.2197 85.2703 5.86712C85.2884 5.50877 85.2023 5.15285 85.0225 4.84234C84.8478 4.57628 84.6098 4.35767 84.33 4.20608C84.0162 4.04855 83.68 3.9403 83.3333 3.88514C82.9901 3.81876 82.6413 3.78483 82.2917 3.78378H79.3074L79.3299 8.03491ZM79.3299 16.2838H83.2714C83.618 16.2847 83.9636 16.2469 84.3018 16.1712C84.6379 16.1024 84.9574 15.9685 85.2421 15.777C85.5262 15.5895 85.7632 15.3391 85.9347 15.045C86.1196 14.7094 86.211 14.3302 86.1993 13.9471C86.2143 13.5429 86.0912 13.1457 85.8502 12.8209C85.6138 12.5287 85.3079 12.3003 84.9606 12.1565C84.5998 12.0062 84.2214 11.9022 83.8345 11.8468C83.4521 11.7925 83.0664 11.7643 82.6802 11.7624H79.3581L79.3299 16.2838Z" fill="url(#paint0_linear)"/>
</g>
<defs>
<linearGradient id="paint0_linear" x1="0" y1="10" x2="153.953" y2="10" gradientUnits="userSpaceOnUse">
<stop stop-color="#90CEA1"/>
<stop offset="0.56" stop-color="#3CBEC9"/>
<stop offset="1" stop-color="#00B3E5"/>
</linearGradient>
<clipPath id="clip0">
<rect width="153.953" height="20" fill="white"/>
</clipPath>
</defs>
</svg>
